<?xml version="1.0" encoding="UTF-8"?> <svg xmlns="http://www.w3.org/2000/svg" id="b6701099-b3a0-4b19-ad59-7a2ec1251e41" data-name="Logo" viewBox="0 0 154 36.05"><title>logo</title><path d="M1141,709.78h5.27l-.8,4.63h3.91l-.75,4.25h-3.83l-1.26,6.83a8.68,8.68,0,0,0-.07,1c0,1.16.9,1.51,2,1.51a11.56,11.56,0,0,0,2-.35l-.72,4a8.92,8.92,0,0,1-3.38.67c-3.37,0-5.44-1.34-5.44-4.25a10.31,10.31,0,0,1,.21-2Z" transform="translate(-995.36 -704.69)" style="fill:#06789d"></path><path d="M1140.32,709.53a3.83,3.83,0,0,0-1.48-.28c-2,0-2.67,1.68-3,3.29l-.31,1.86h3.93l-.74,4.21h-3.86l-2.35,13.25H1127l3.44-19.5c.73-4.07,2.52-7.67,8.24-7.67a7.24,7.24,0,0,1,2.43.29Z" transform="translate(-995.36 -704.69)" style="fill:#06789d"></path><path d="M1109,724.67c0-5.78,4.07-10.79,10.66-10.79,5.15,0,9,2.94,9,7.67,0,5.86-4.07,10.8-10.77,10.8C1112.81,732.35,1109,729.41,1109,724.67Zm10.41-6.2c-3,0-4.9,2.59-4.9,5.61a3.42,3.42,0,0,0,3.64,3.65c3,0,4.95-2.56,4.95-5.58A3.48,3.48,0,0,0,1119.4,718.47Z" transform="translate(-995.36 -704.69)" style="fill:#06789d"></path><path d="M1102.2,717.15c-2-.7-3.12-1.41-3.12-2.81,0-2.14,2.17-3,3.75-3,2.28,0,4.29,1.54,5.52,2.78l2.41-4.55a12,12,0,0,0-7.62-3c-5.11,0-9.33,2.72-10,7.11h4.29l-2.83,5.34a11.3,11.3,0,0,0,4.36,2.45c2.31.81,3.85,1.69,3.85,3.41,0,2.17-2,3-4,3a10.09,10.09,0,0,1-6.62-3.15l-2.42,4.57c1.68,2,5.43,3.42,8.93,3.42,4.77,0,10.24-2.35,10.24-8.31C1109,720.69,1106.48,718.65,1102.2,717.15Z" transform="translate(-995.36 -704.69)" style="fill:#06789d"></path><path d="M1093.21,713.7a8.35,8.35,0,0,0-.08,1.13,5.4,5.4,0,0,0,1.52,4.21l2.83-5.34Z" transform="translate(-995.36 -704.69)" style="fill:#e51313"></path><path d="M1093.19,713.7h-3.32l-4.45,10.42h-.65l-1.46-10.42H1076l3.89,18.48-.27.51a3.74,3.74,0,0,1-3.59,2.17,6.19,6.19,0,0,1-1.88-.39l-1,5.79a14.73,14.73,0,0,0,3.77.48c5.23,0,7.44-2.37,10.16-7.35l7.64-14.35a5.41,5.41,0,0,1-1.53-4.21A8.36,8.36,0,0,1,1093.19,713.7Z" transform="translate(-995.36 -704.69)" style="fill:#004771"></path><path d="M1067,732.53a6.21,6.21,0,0,1-5.17-2.35l-.1-.15h-.65l-.36,2h-6.63l4.69-26.67h7.43l-1.74,10h.66l.09-.1a6.73,6.73,0,0,1,4.71-2c4.46,0,7.33,3.06,7.33,7.8,0,6.43-4.5,11.46-10.26,11.46Zm-.18-13.45a4.18,4.18,0,0,0-4,4.49,3,3,0,0,0,3.19,3.08c2.35,0,4.06-1.89,4.06-4.49a3,3,0,0,0-3.23-3.08Z" transform="translate(-995.36 -704.69)" style="fill:#004771"></path><path d="M1039.8,732l3.23-18.36h7.11l-.41,2.32h.65l.1-.14a5.51,5.51,0,0,1,4.58-2.58,13.15,13.15,0,0,1,1.62.1l-1,5.94a3.75,3.75,0,0,0-2.18-.32,5.86,5.86,0,0,0-5.06,4.57l-1.5,8.47Z" transform="translate(-995.36 -704.69)" style="fill:#004771"></path><path d="M1034.61,726.06a4.19,4.19,0,0,1-3.15,1.31c-4,0-3.61-2.94-3.61-2.94h13.23a12.58,12.58,0,0,0,.43-3.14c0-5-3.33-8.16-8.68-8.16a11.72,11.72,0,0,0-8.34,3.24,11.07,11.07,0,0,0-3.22,8c0,6.13,5.2,8.31,9.65,8.31,1.48,0,8.81-.32,9.93-6.58Zm-6.22-5.27a4.47,4.47,0,0,1,4.3-3.08c1.74,0,2.86.91,2.86,2.32a2,2,0,0,1,0,.51l-.06.25Z" transform="translate(-995.36 -704.69)" style="fill:#004771"></path><path d="M995.36,732.06l4.4-24.94h10.32a13.67,13.67,0,0,1,8.1,2.44,9.69,9.69,0,0,1,3.86,8.15,13.72,13.72,0,0,1-4.34,10.47,16.08,16.08,0,0,1-11,3.88Zm8.64-6.53h3.11a6.7,6.7,0,0,0,6.92-6.92c0-3.12-2.06-5.07-5.36-5.07h-2.52Z" transform="translate(-995.36 -704.69)" style="fill:#004771"></path></svg> 